<?xml version="1.0" standalone="no"?>
<!DOCTYPE svg PUBLIC "-//W3C//DTD SVG 20010904//EN"
 "http://www.w3.org/TR/2001/REC-SVG-20010904/DTD/svg10.dtd">
<svg version="1.0" xmlns="http://www.w3.org/2000/svg"
 width="59.000000pt" height="59.000000pt" viewBox="0 0 59.000000 59.000000"
 preserveAspectRatio="xMidYMid meet">

<g transform="translate(0.000000,59.000000) scale(0.100000,-0.100000)"
fill="#000000" stroke="none">
<path d="M220 551 c-71 -23 -122 -66 -156 -131 -28 -53 -27 -200 3 -255 45
-86 118 -124 234 -125 104 0 168 31 209 104 46 79 39 96 -39 96 -33 0 -39 -4
-54 -35 -45 -95 -170 -92 -219 6 -22 41 -23 127 -4 173 42 101 191 102 227 1
11 -29 17 -35 34 -31 11 3 35 6 53 6 38 0 42 21 16 73 -40 80 -103 117 -208
123 -39 2 -82 0 -96 -5z"/>
</g>
</svg>
